<?xml version="1.0" encoding="UTF-8" standalone="no"?>
<svg
   viewBox="-178.3 -167.1 1280 640"
   version="1.1"
   id="svg6"
   sodipodi:docname="awesome-kustomize.svg"
   inkscape:version="1.1.2 (0a00cf5339, 2022-02-04)"
   width="1280"
   height="640"
   inkscape:export-filename="awesome-kustomize.png"
   inkscape:export-xdpi="96"
   inkscape:export-ydpi="96"
   xmlns:inkscape="http://www.inkscape.org/namespaces/inkscape"
   xmlns:sodipodi="http://sodipodi.sourceforge.net/DTD/sodipodi-0.dtd"
   xmlns="http://www.w3.org/2000/svg"
   xmlns:svg="http://www.w3.org/2000/svg">
  <defs
     id="defs10" />
  <sodipodi:namedview
     id="namedview8"
     pagecolor="#ffffff"
     bordercolor="#000000"
     borderopacity="0.25"
     inkscape:pageshadow="2"
     inkscape:pageopacity="0.0"
     inkscape:pagecheckerboard="0"
     showgrid="false"
     inkscape:zoom="0.75336356"
     inkscape:cx="254.85703"
     inkscape:cy="515.02358"
     inkscape:window-width="1920"
     inkscape:window-height="1053"
     inkscape:window-x="0"
     inkscape:window-y="0"
     inkscape:window-maximized="1"
     inkscape:current-layer="g47743"
     fit-margin-top="0"
     fit-margin-left="0"
     fit-margin-right="0"
     fit-margin-bottom="0"
     inkscape:snap-global="false" />
  <g
     id="g47743"
     transform="translate(206.57363,438.93754)">
    <path
       d="m 94.018831,-217.15933 c 2.664586,0 4.862869,0.9326 6.728079,2.79781 1.86521,1.86521 2.79782,4.13011 2.79782,6.72808 v 33.04087 H 69.771097 c -2.664586,0 -4.86287,-0.93261 -6.72808,-2.79782 -1.86521,-1.86521 -2.797815,-4.1301 -2.797815,-6.72808 v -15.72105 h 35.37238 v -7.79392 c 0,-0.4663 -0.133229,-0.79937 -0.466302,-1.13245 -0.333073,-0.33307 -0.666147,-0.4663 -1.132449,-0.4663 H 60.245202 v -7.92714 z m 1.598751,34.63962 v -9.39267 H 68.172345 v 7.79391 c 0,0.46631 0.13323,0.79938 0.466303,1.13245 0.333073,0.33308 0.666146,0.46631 1.132449,0.46631 z m 76.407008,-34.63962 h 8.46006 l -15.98751,42.56676 h -6.46163 l -14.32215,-31.64196 -13.52277,31.64196 -0.13323,-0.0666 0.0666,0.0666 h -6.395 l -16.72028,-42.56676 h 8.39345 l 11.52433,28.24461 12.2571,-28.24461 h 9.05959 l 12.98986,28.24461 z m 44.76505,0 c 2.66458,0 4.86287,0.9326 6.72808,2.79781 1.86521,1.86521 2.79781,4.13011 2.79781,6.72808 v 15.72106 h -35.37238 v 7.79391 c 0,0.46631 0.13323,0.79938 0.46631,1.13245 0.33307,0.33308 0.66614,0.46631 1.13244,0.46631 h 33.77363 v 7.92714 H 192.5419 c -2.66458,0 -4.86287,-0.93261 -6.72808,-2.79782 -1.86521,-1.86521 -2.79781,-4.1301 -2.79781,-6.72808 v -23.51497 c 0,-2.66458 0.9326,-4.86287 2.79781,-6.72808 1.86521,-1.86521 4.13011,-2.79781 6.72808,-2.79781 z m -25.84649,17.31981 h 27.44524 v -7.79392 c 0,-0.4663 -0.13323,-0.79937 -0.4663,-1.13245 -0.33308,-0.33307 -0.66615,-0.4663 -1.13245,-0.4663 H 192.5419 c -0.4663,0 -0.79937,0.13323 -1.13244,0.4663 -0.33308,0.33308 -0.46631,0.66615 -0.46631,1.13245 z m 85.93291,-7.7273 v 1.59875 h -7.92715 v -1.59875 c 0,-0.46631 -0.13323,-0.79938 -0.4663,-1.13245 -0.33307,-0.33308 -0.66615,-0.46631 -1.13245,-0.46631 h -24.24773 c -0.46631,0 -0.79938,0.13323 -1.13245,0.46631 -0.33308,0.33307 -0.46631,0.66614 -0.46631,1.13245 v 6.19516 c 0,0.4663 0.13323,0.79937 0.46631,1.13245 0.33307,0.33307 0.66614,0.4663 1.13245,0.4663 h 24.24773 c 2.66459,0 4.86287,0.93261 6.72808,2.79782 1.86521,1.86521 2.79782,4.1301 2.79782,6.72808 v 6.19516 c 0,2.66458 -0.93261,4.86287 -2.79782,6.72808 -1.86521,1.86521 -4.13011,2.79781 -6.72808,2.79781 h -24.24773 c -2.66459,0 -4.86287,-0.9326 -6.72808,-2.79781 -1.86521,-1.86521 -2.79782,-4.13011 -2.79782,-6.72808 v -1.59875 h 7.92714 v 1.59875 c 0,0.4663 0.13323,0.79937 0.46631,1.13245 0.33307,0.33307 0.66614,0.4663 1.13245,0.4663 h 24.24773 c 0.4663,0 0.79938,-0.13323 1.13245,-0.4663 0.33307,-0.33308 0.4663,-0.66615 0.4663,-1.13245 v -6.19516 c 0,-0.46631 -0.13323,-0.79938 -0.4663,-1.13245 -0.33307,-0.33308 -0.66615,-0.46631 -1.13245,-0.46631 h -24.24773 c -2.66459,0 -4.86287,-0.9326 -6.72808,-2.79781 -1.86521,-1.86521 -2.79782,-4.13011 -2.79782,-6.72808 v -6.19516 c 0,-2.66459 0.93261,-4.86287 2.79782,-6.72808 1.86521,-1.86521 4.1301,-2.79782 6.72808,-2.79782 h 24.24773 c 2.66459,0 4.86287,0.93261 6.72808,2.79782 1.86521,1.79859 2.79782,4.06349 2.79782,6.72808 z m 16.78689,-9.59251 h 24.24773 c 2.66459,0 4.86287,0.9326 6.72808,2.79781 1.86521,1.86521 2.79782,4.13011 2.79782,6.72808 v 23.51497 c 0,2.66459 -0.93261,4.86287 -2.79782,6.72808 -1.86521,1.86521 -4.13011,2.79782 -6.72808,2.79782 h -24.24773 c -2.66459,0 -4.86287,-0.93261 -6.72808,-2.79782 -1.86521,-1.86521 -2.79782,-4.1301 -2.79782,-6.72808 v -23.51497 c 0,-2.66458 0.93261,-4.86287 2.79782,-6.72808 1.86521,-1.86521 4.13011,-2.79781 6.72808,-2.79781 z m 24.24773,7.92714 h -24.24773 c -0.4663,0 -0.79938,0.13323 -1.13245,0.4663 -0.33307,0.33308 -0.4663,0.66615 -0.4663,1.13245 v 23.51497 c 0,0.46631 0.13323,0.79938 0.4663,1.13245 0.33307,0.33308 0.66615,0.46631 1.13245,0.46631 h 24.24773 c 0.4663,0 0.79938,-0.13323 1.13245,-0.46631 0.33307,-0.33307 0.4663,-0.66614 0.4663,-1.13245 v -23.51497 c 0,-0.4663 -0.13323,-0.79937 -0.4663,-1.13245 -0.33307,-0.26646 -0.66615,-0.4663 -1.13245,-0.4663 z m 71.61075,-7.92714 c 2.66459,0 4.86287,0.9326 6.72808,2.79781 1.86521,1.86521 2.79782,4.13011 2.79782,6.72808 v 33.04087 h -7.86053 v -33.04087 c 0,-0.4663 -0.13323,-0.79937 -0.4663,-1.13245 -0.33308,-0.33307 -0.73276,-0.4663 -1.19907,-0.4663 h -16.78689 c -0.4663,0 -0.79937,0.13323 -1.13245,0.4663 -0.33307,0.33308 -0.4663,0.66615 -0.4663,1.13245 v 33.04087 h -7.92714 v -33.04087 c 0,-0.4663 -0.13323,-0.79937 -0.46631,-1.13245 -0.33307,-0.33307 -0.66614,-0.4663 -1.13245,-0.4663 h -16.8535 c -0.46631,0 -0.79938,0.13323 -1.13245,0.4663 -0.33308,0.33308 -0.46631,0.66615 -0.46631,1.13245 v 33.04087 h -7.92714 v -42.56676 z m 50.96021,0 c 2.66459,0 4.86287,0.9326 6.72808,2.79781 1.86521,1.86521 2.79782,4.13011 2.79782,6.72808 v 15.72106 h -35.37238 v 7.79391 c 0,0.46631 0.13323,0.79938 0.4663,1.13245 0.33307,0.33308 0.66615,0.46631 1.13245,0.46631 h 33.77363 v 7.92714 h -33.77363 c -2.66459,0 -4.86287,-0.93261 -6.72808,-2.79782 -1.86521,-1.86521 -2.79782,-4.1301 -2.79782,-6.72808 v -23.51497 c 0,-2.66458 0.93261,-4.86287 2.79782,-6.72808 1.86521,-1.86521 4.13011,-2.79781 6.72808,-2.79781 z m -25.84648,17.31981 h 27.44523 v -7.79392 c 0,-0.4663 -0.13322,-0.79937 -0.4663,-1.13245 -0.33307,-0.33307 -0.66614,-0.4663 -1.13245,-0.4663 h -24.24773 c -0.4663,0 -0.79938,0.13323 -1.13245,0.4663 -0.33307,0.33308 -0.4663,0.66615 -0.4663,1.13245 z"
       fill="#494368"
       id="path2"
       style="stroke-width:0.666147" />
    <path
       fill="#FC60A8"
       d="m 449.94092,-371.77194 -99.92198,-91.66177 -14.05569,15.32137 83.26832,76.3404 H 91.021173 l 83.268317,-76.40701 -14.05569,-15.32137 -99.921982,91.72838 h -0.06661 v 60.41949 c 0,27.312 26.312788,49.5613 58.620892,49.5613 h 61.61855 c 32.30811,0 58.6209,-22.2493 58.6209,-49.5613 v -39.70234 h 31.97503 v 39.70234 c 0,27.312 26.31279,49.5613 58.6209,49.5613 h 61.61855 c 32.30811,0 58.62089,-22.2493 58.62089,-49.5613 z"
       id="path4"
       style="fill:#3e5fa8;fill-opacity:1;stroke-width:0.666147" />
    <g
       aria-label="Kustomize"
       id="text30291"
       style="font-size:74.5775px;font-family:'Noto Naskh Arabic';-inkscape-font-specification:'Noto Naskh Arabic';text-align:center;letter-spacing:0.0950698px;text-anchor:middle;fill:#4d4d4d;stroke-width:2.23733;stop-color:#000000"
       transform="matrix(0.66614653,0,0,0.66614653,29.173642,-404.41312)">
      <g
         aria-label="Kustomize"
         id="text18514"
         style="font-weight:300;font-size:76.0593px;line-height:1.25;font-family:Ubuntu;-inkscape-font-specification:'Ubuntu Light';letter-spacing:0px;word-spacing:0px;fill:#3e5fa8;stroke-width:45.96;stop-color:#000000">
        <path
           d="m 191.10663,429.28574 q -1.97754,-3.04238 -4.56356,-6.38899 -2.58601,-3.3466 -5.47627,-6.46504 -2.81419,-3.11843 -5.85656,-5.93262 -3.04237,-2.8142 -6.00869,-4.8678 v 23.65445 h -9.58347 v -52.7091 h 9.58347 v 21.75296 q 2.50996,-2.50996 5.24809,-5.32415 2.73814,-2.89026 5.40022,-5.78051 2.73813,-2.96631 5.17203,-5.70445 2.4339,-2.73813 4.41144,-4.94385 h 11.48495 q -2.50995,2.89025 -5.32415,6.00868 -2.81419,3.11844 -5.78051,6.31293 -2.96631,3.11843 -6.00868,6.23686 -2.96631,3.11843 -5.85657,5.93262 3.19449,2.4339 6.46504,5.70445 3.34661,3.19449 6.5411,6.9214 3.19449,3.65085 6.08475,7.68199 2.96631,3.95508 5.40021,7.91017 z"
           style="font-weight:500;-inkscape-font-specification:'Ubuntu Medium'"
           id="path828" />
        <path
           d="m 239.93652,428.06879 q -2.66208,0.68453 -6.9214,1.36906 -4.25932,0.7606 -9.35529,0.7606 -4.79174,0 -8.06229,-1.36907 -3.19449,-1.36907 -5.17203,-3.80296 -1.90149,-2.4339 -2.73814,-5.78051 -0.83665,-3.42267 -0.83665,-7.45381 v -22.28538 h 9.20318 v 20.84025 q 0,6.38898 1.82542,9.12712 1.90148,2.73813 6.5411,2.73813 1.6733,0 3.49873,-0.15212 1.90148,-0.15212 2.81419,-0.38029 v -32.17309 h 9.20318 z"
           style="font-weight:500;-inkscape-font-specification:'Ubuntu Medium'"
           id="path830" />
        <path
           d="m 261.61329,422.66858 q 3.65084,0 5.32415,-0.83666 1.6733,-0.91271 1.6733,-3.04237 0,-1.97754 -1.82542,-3.27055 -1.74937,-1.29301 -5.85657,-2.81419 -2.50995,-0.91271 -4.63961,-1.90148 -2.05361,-1.06483 -3.57479,-2.4339 -1.52119,-1.36907 -2.4339,-3.27055 -0.83665,-1.97754 -0.83665,-4.79174 0,-5.47627 4.03114,-8.5947 4.03114,-3.19449 10.95254,-3.19449 3.49873,0 6.69322,0.68453 3.19449,0.60848 4.79174,1.21695 l -1.67331,7.45381 q -1.52119,-0.68453 -3.87902,-1.21695 -2.35784,-0.60847 -5.47627,-0.60847 -2.8142,0 -4.56356,0.98877 -1.74937,0.91271 -1.74937,2.89026 0,0.98877 0.30424,1.74936 0.3803,0.76059 1.21695,1.44513 0.83665,0.60847 2.20572,1.293 1.36907,0.60848 3.34661,1.29301 3.27055,1.21695 5.55233,2.4339 2.28178,1.14089 3.7269,2.66208 1.52119,1.44512 2.20572,3.3466 0.68454,1.90149 0.68454,4.56356 0,5.70445 -4.25932,8.67076 -4.18326,2.89026 -12.01737,2.89026 -5.24809,0 -8.44259,-0.91271 -3.19449,-0.83666 -4.48749,-1.36907 l 1.59724,-7.68199 q 2.0536,0.83665 4.8678,1.59724 2.89025,0.7606 6.5411,0.7606 z"
           style="font-weight:500;-inkscape-font-specification:'Ubuntu Medium'"
           id="path832" />
        <path
           d="m 285.95218,379.01054 9.20318,-1.52119 v 12.01737 h 14.14703 v 7.68199 h -14.14703 v 16.20063 q 0,4.79174 1.52118,6.84534 1.52119,2.0536 5.17203,2.0536 2.50996,0 4.41144,-0.53241 1.97755,-0.53242 3.11844,-0.98878 l 1.52118,7.3017 q -1.59724,0.68453 -4.18326,1.36906 -2.58602,0.7606 -6.08474,0.7606 -4.25933,0 -7.14958,-1.14089 -2.81419,-1.14089 -4.4875,-3.27055 -1.6733,-2.20572 -2.35784,-5.24809 -0.68453,-3.11844 -0.68453,-7.07352 z"
           style="font-weight:500;-inkscape-font-specification:'Ubuntu Medium'"
           id="path834" />
        <path
           d="m 353.26453,409.3582 q 0,4.71568 -1.36907,8.5947 -1.36907,3.87902 -3.87902,6.61716 -2.50996,2.73813 -6.08475,4.25932 -3.49872,1.52119 -7.75805,1.52119 -4.25932,0 -7.75804,-1.52119 -3.49873,-1.52119 -6.00869,-4.25932 -2.50996,-2.73814 -3.95508,-6.61716 -1.36907,-3.87902 -1.36907,-8.5947 0,-4.71568 1.36907,-8.51864 1.44512,-3.87903 3.95508,-6.61716 2.58602,-2.73814 6.08475,-4.18326 3.49872,-1.52119 7.68198,-1.52119 4.18327,0 7.68199,1.52119 3.57479,1.44512 6.08475,4.18326 2.50996,2.73813 3.87902,6.61716 1.44513,3.80296 1.44513,8.51864 z m -9.43135,0 q 0,-5.93263 -2.58602,-9.3553 -2.50996,-3.49872 -7.07352,-3.49872 -4.56355,0 -7.14957,3.49872 -2.50996,3.42267 -2.50996,9.3553 0,6.00868 2.50996,9.50741 2.58602,3.49873 7.14957,3.49873 4.56356,0 7.07352,-3.49873 2.58602,-3.49873 2.58602,-9.50741 z"
           style="font-weight:500;-inkscape-font-specification:'Ubuntu Medium'"
           id="path836" />
        <path
           d="m 385.43758,408.36943 q 0,-6.23687 -1.59724,-8.975 -1.52119,-2.81419 -5.78051,-2.81419 -1.52119,0 -3.34661,0.22817 -1.82542,0.22818 -2.73814,0.3803 v 32.09703 h -9.20317 v -38.48601 q 2.66207,-0.76059 6.92139,-1.44513 4.33539,-0.68453 9.12712,-0.68453 4.1072,0 6.69322,1.06483 2.66208,1.06483 4.41144,2.81419 0.83665,-0.60847 2.12966,-1.29301 1.29301,-0.68453 2.89025,-1.21694 1.59725,-0.60848 3.34661,-0.98878 1.82543,-0.38029 3.65085,-0.38029 4.63962,0 7.60593,1.36907 3.04237,1.293 4.71568,3.7269 1.74936,2.35784 2.35784,5.78051 0.68453,3.34661 0.68453,7.37775 v 22.36144 h -9.20318 v -20.91631 q 0,-6.23687 -1.52118,-8.975 -1.52119,-2.81419 -5.85657,-2.81419 -2.20572,0 -4.18326,0.76059 -1.97754,0.68453 -2.96631,1.36907 0.60847,1.90148 0.83665,4.03114 0.22818,2.12966 0.22818,4.56356 v 21.98114 h -9.20318 z"
           style="font-weight:500;-inkscape-font-specification:'Ubuntu Medium'"
           id="path838" />
        <path
           d="m 437.84242,429.28574 h -9.20318 v -39.77902 h 9.20318 z m 0.98877,-51.41609 q 0,2.58601 -1.67331,4.1072 -1.6733,1.52119 -3.95508,1.52119 -2.35784,0 -4.03114,-1.52119 -1.67331,-1.52119 -1.67331,-4.1072 0,-2.66208 1.67331,-4.18326 1.6733,-1.52119 4.03114,-1.52119 2.28178,0 3.95508,1.52119 1.67331,1.52118 1.67331,4.18326 z"
           style="font-weight:500;-inkscape-font-specification:'Ubuntu Medium'"
           id="path840" />
        <path
           d="m 477.3932,395.97176 q -1.52119,1.59725 -4.03115,4.4875 -2.43389,2.89025 -5.24809,6.46504 -2.81419,3.49873 -5.70444,7.37775 -2.8142,3.80297 -5.09598,7.3017 h 20.53601 v 7.68199 h -31.64067 v -5.70445 q 1.67331,-3.04237 4.18327,-6.61716 2.50995,-3.57479 5.17203,-7.14958 2.66207,-3.65084 5.24809,-6.92139 2.66208,-3.27055 4.71568,-5.70445 h -18.3303 v -7.68199 h 30.19555 z"
           style="font-weight:500;-inkscape-font-specification:'Ubuntu Medium'"
           id="path842" />
        <path
           d="m 482.8694,409.58638 q 0,-5.2481 1.52118,-9.20318 1.59725,-3.95508 4.18326,-6.5411 2.58602,-2.66207 5.93263,-3.95508 3.34661,-1.36907 6.84534,-1.36907 8.2144,0 12.77796,5.09597 4.63962,5.09598 4.63962,15.21186 0,0.7606 -0.0761,1.74937 0,0.91271 -0.0761,1.6733 h -26.24046 q 0.3803,4.79174 3.34661,7.45381 3.04237,2.58602 8.74682,2.58602 3.34661,0 6.08474,-0.60847 2.8142,-0.60848 4.41144,-1.29301 l 1.21695,7.52987 q -0.76059,0.3803 -2.12966,0.83665 -1.29301,0.3803 -3.04237,0.68453 -1.67331,0.3803 -3.65085,0.60848 -1.97754,0.22818 -4.03114,0.22818 -5.24809,0 -9.12712,-1.52119 -3.87902,-1.59724 -6.38898,-4.33538 -2.50996,-2.81419 -3.72691,-6.5411 -1.21694,-3.80296 -1.21694,-8.29046 z m 26.69681,-4.10721 q 0,-1.90148 -0.53241,-3.57478 -0.53242,-1.74937 -1.59725,-2.96632 -0.98877,-1.293 -2.50996,-1.97754 -1.44512,-0.76059 -3.49872,-0.76059 -2.12966,0 -3.72691,0.83665 -1.59725,0.76059 -2.73813,2.0536 -1.06484,1.29301 -1.67331,2.96632 -0.60847,1.6733 -0.83665,3.42266 z"
           style="font-weight:500;-inkscape-font-specification:'Ubuntu Medium'"
           id="path844" />
      </g>
    </g>
    <path
       d="m 129.49712,-344.28321 v 47.0575 h 6.26116 v -16.47671 l 7.8429,-7.31566 17.00398,23.79237 h 7.90883 l -20.62884,-28.07633 19.83794,-18.98117 h -8.10652 l -23.85829,23.46285 v -23.46285 z"
       id="path250-3"
       inkscape:connector-curvature="0"
       style="fill:#ffffff;stroke:#ffffff;stroke-width:3.29534" />
    <path
       d="m 339.73554,-344.06968 v 47.0575 h 6.26116 v -16.47671 l 7.8429,-7.31566 17.00398,23.79237 h 7.90883 l -20.62884,-28.07633 19.83794,-18.98117 h -8.10652 l -23.85829,23.46285 v -23.46285 z"
       id="path15997"
       inkscape:connector-curvature="0"
       style="fill:#ffffff;stroke:#ffffff;stroke-width:3.29534" />
  </g>
</svg>
